<svg xmlns="http://www.w3.org/2000/svg" width="260" height="240" viewBox="0 0 260 240"><defs><radialGradient id="bg"><stop stop-color="#fff" stop-opacity=".55"/><stop offset="1" stop-color="#f2e9de"/></radialGradient><filter id="shadow"><feGaussianBlur stdDeviation="6"/></filter></defs><rect width="260" height="240" rx="16" fill="#f2e9de"/><rect width="260" height="240" rx="16" fill="url(#bg)"/><ellipse cx="132" cy="205" rx="70" ry="8" fill="#373047" opacity=".07" filter="url(#shadow)"/><ellipse cx="135" cy="185" rx="48" ry="11" fill="#cabda9"/><ellipse cx="135" cy="181" rx="48" ry="10" fill="#eee5d7"/><path d="m135 177 9-57-20-43" fill="none" stroke="#b4a28c" stroke-width="7" stroke-linecap="round"/><circle cx="144" cy="120" r="7" fill="#d8cbb7"/><path d="m102 43 53 12-17 40-51-12z" fill="#d7c3a4"/><path d="m102 43 13-6 53 12-13 6z" fill="#eee1cc"/><path d="m155 55 13-6-17 40-13 6z" fill="#b5a184"/><ellipse cx="112" cy="88" rx="24" ry="5" transform="rotate(13 112 88)" fill="#fff5d9"/><path d="m90 91-29 80h119l-45-70" fill="#fff3cc" opacity=".35"/></svg>